<!-- Created with Ghost ide -->
<svg
  xmlns="http://www.w3.org/2000/svg"
  x="0%"
  y="0%"
  width="100%"
  height="100%"
  viewBox="0 0 24.0 24.0"
  enable-background="new 0 0 24.0 24.0"
  space="preserve"
  version="1.1">
  <defs>
    <linearGradient
      id="fillGrad0"
      x1="-3.990%"
      y1="76.150%"
      x2="102.416%"
      y2="27.598%">
      <stop
        style="stop-color:rgb(255,0,222); stop-opacity:1.000"
        offset="0.000%" />
      <stop
        style="stop-color:rgb(133,0,255); stop-opacity:1.000"
        offset="100.000%" />
    </linearGradient>
    <linearGradient
      id="fillGrad1"
      x1="-0.348%"
      y1="26.787%"
      x2="115.629%"
      y2="83.285%">
      <stop
        style="stop-color:rgb(0,198,255); stop-opacity:1.000"
        offset="0.000%" />
      <stop
        style="stop-color:rgb(0,105,255); stop-opacity:1.000"
        offset="100.000%" />
    </linearGradient>
    <linearGradient
      id="fillGrad2"
      x1="8.780%"
      y1="88.934%"
      x2="93.958%"
      y2="3.907%">
      <stop
        style="stop-color:rgb(9,255,0); stop-opacity:1.000"
        offset="0.000%" />
      <stop
        style="stop-color:rgb(0,255,117); stop-opacity:1.000"
        offset="33.333%" />
      <stop
        style="stop-color:rgb(0,255,147); stop-opacity:1.000"
        offset="66.667%" />
      <stop
        style="stop-color:rgb(0,255,140); stop-opacity:1.000"
        offset="100.000%" />
    </linearGradient>
    <style type="text/css">
        @font-face {
            font-family: 'aclonica';
            src: url('https://raw.githubusercontent.com/HanzoDev1375/Ghostide/main/aclonica.ttf') format('truetype');
            font-weight: normal;
            font-style: normal;
            font-display: swap;
        }
</style>
  </defs>
  <path
    fill="url(#fillGrad0)"
    stroke="#000000"
    stroke-width="0.3819909"
    stroke-opacity="0.012"
    fill-opacity="1.0"
    d="M 6.27,3.74 L 18.58,3.74 A 2.04 2.04 0 0 1 20.62,5.78 L 20.62,18.01 A 2.04 2.04 0 0 1 18.58,20.05 L 6.27,20.05 A 2.04 2.04 0 0 1 4.23,18.01 L 4.23,5.78 A 2.04 2.04 0 0 1 6.27,3.74 z"
    transform="rotate(-33.04 12.43 11.90)"
    fill-rule="nonzero"
    stroke-linecap="square"
    stroke-linejoin="miter" />
  <path
    fill="url(#fillGrad1)"
    stroke="#000000"
    stroke-width="0.3819909"
    stroke-opacity="0.024"
    fill-opacity="1.0"
    d="M 6.27,3.74 L 18.58,3.74 A 2.04 2.04 0 0 1 20.62,5.78 L 20.62,18.01 A 2.04 2.04 0 0 1 18.58,20.05 L 6.27,20.05 A 2.04 2.04 0 0 1 4.23,18.01 L 4.23,5.78 A 2.04 2.04 0 0 1 6.27,3.74 z"
    transform="rotate(-348.72 12.43 11.90)"
    fill-rule="nonzero"
    stroke-linecap="square"
    stroke-linejoin="miter" />
  <path
    fill="url(#fillGrad2)"
    stroke="#000000"
    stroke-width="0.39216498"
    stroke-opacity="0.000"
    fill-opacity="1.0"
    d="M 6.32,4.01 L 18.19,4.01 A 2.46 2.46 0 0 1 20.65,6.47 L 20.65,17.38 A 2.46 2.46 0 0 1 18.19,19.85 L 6.32,19.85 A 2.46 2.46 0 0 1 3.86,17.38 L 3.86,6.47 A 2.46 2.46 0 0 1 6.32,4.01 z"
    transform="rotate(-9.62 12.25 11.93)"
    fill-rule="nonzero"
    stroke-linecap="square"
    stroke-linejoin="miter" />
  <path
    fill="#070707"
    stroke="#000000"
    stroke-width="0.39216498"
    stroke-opacity="0.000"
    fill-opacity="1.000"
    d="M 6.37,8.21 L 18.19,8.31 A 0.92 0.92 0 0 1 19.10,9.23 L 19.06,14.73 A 0.92 0.92 0 0 1 18.13,15.64 L 6.32,15.55 A 0.92 0.92 0 0 1 5.41,14.63 L 5.45,9.12 A 0.92 0.92 0 0 1 6.37,8.21 z"
    fill-rule="nonzero"
    stroke-linecap="square"
    stroke-linejoin="miter" />
  <text
    stroke="#000000"
    stroke-width="0.39216498"
    stroke-opacity="0.000"
    fill-opacity="0"
    transform="rotate(-0.0 11.800726 12.183786) scale(0.83144563 1.0)"
    font-family="aclonica"
    font-size="5.1251454"
    font-weight="bold"
    text-anchor="start">
    <tspan
      x="7.2775207"
      y="14.146285">G W I</tspan>
  </text>
  <text
    fill="#fff"
    stroke-width="0"
    fill-opacity="1.000"
    transform="rotate(-0.0 11.800726 12.183786) scale(0.83144563 1.0)"
    font-family="aclonica"
    font-size="5.1251454"
    font-weight="bold"
    text-anchor="start">
    <tspan
      x="7.2775207"
      y="14.146285">G W I</tspan>
  </text>
</svg>