<!-- Created with Ghost ide -->
<svg
  xmlns="http://www.w3.org/2000/svg"
  x="0%"
  y="0%"
  width="100%"
  height="100%"
  viewBox="0 0 24.0 24.0">
  <defs>
    <linearGradient
      id="fillGrad0"
      x1="18.806%"
      y1="17.373%"
      x2="73.604%"
      y2="76.075%">
      <stop
        style="stop-color:rgb(0,255,253); stop-opacity:1.000"
        offset="0.000%">
        <animate
          attributeName="stop-color"
          dur="3s"
          repeatCount="indefinite"
          values="rgb(0,255,253);rgb(255,119,0);rgb(0,255,253)" />
      </stop>
      <stop
        style="stop-color:rgb(255,119,0); stop-opacity:1.000"
        offset="100.000%">
        <animate
          attributeName="stop-color"
          dur="3s"
          repeatCount="indefinite"
          values="rgb(255,119,0);rgb(0,255,253);rgb(255,119,0)" />
      </stop>
    </linearGradient>
    <linearGradient
      id="fillGrad1"
      x1="19.224%"
      y1="10.356%"
      x2="81.534%"
      y2="86.270%">
      <stop
        style="stop-color:rgb(0,148,255); stop-opacity:1.000"
        offset="0.000%">
        <animate
          attributeName="stop-color"
          dur="4s"
          repeatCount="indefinite"
          values="rgb(0,148,255);rgb(255,0,167);rgb(201,0,255);rgb(0,148,255)" />
      </stop>
      <stop
        style="stop-color:rgb(255,0,167); stop-opacity:1.000"
        offset="56.939%">
        <animate
          attributeName="stop-color"
          dur="4s"
          repeatCount="indefinite"
          values="rgb(255,0,167);rgb(201,0,255);rgb(0,148,255);rgb(255,0,167)" />
      </stop>
      <stop
        style="stop-color:rgb(201,0,255); stop-opacity:1.000"
        offset="100.000%">
        <animate
          attributeName="stop-color"
          dur="4s"
          repeatCount="indefinite"
          values="rgb(201,0,255);rgb(0,148,255);rgb(255,0,167);rgb(201,0,255)" />
      </stop>
    </linearGradient>
    <linearGradient
      id="fillGrad2"
      x1="18.806%"
      y1="17.373%"
      x2="73.604%"
      y2="76.075%">
      <stop
        style="stop-color:rgb(0,186,255); stop-opacity:1.000"
        offset="0.000%">
        <animate
          attributeName="stop-color"
          dur="3s"
          repeatCount="indefinite"
          values="rgb(0,186,255);rgb(0,255,67);rgb(0,186,255)" />
      </stop>
      <stop
        style="stop-color:rgb(0,255,67); stop-opacity:1.000"
        offset="100.000%">
        <animate
          attributeName="stop-color"
          dur="3s"
          repeatCount="indefinite"
          values="rgb(0,255,67);rgb(0,186,255);rgb(0,255,67)" />
      </stop>
    </linearGradient>
    <linearGradient
      id="fillGrad3"
      x1="0%"
      y1="0%"
      x2="100%"
      y2="100%">
      <stop
        style="stop-color:rgb(255,50,150); stop-opacity:1.000"
        offset="0.000%">
        <animate
          attributeName="stop-color"
          dur="2.5s"
          repeatCount="indefinite"
          values="rgb(255,50,150);rgb(0,200,255);rgb(150,50,255);rgb(255,50,150)" />
      </stop>
      <stop
        style="stop-color:rgb(0,200,255); stop-opacity:1.000"
        offset="50.000%">
        <animate
          attributeName="stop-color"
          dur="2.5s"
          repeatCount="indefinite"
          values="rgb(0,200,255);rgb(150,50,255);rgb(255,50,150);rgb(0,200,255)" />
      </stop>
      <stop
        style="stop-color:rgb(150,50,255); stop-opacity:1.000"
        offset="100.000%">
        <animate
          attributeName="stop-color"
          dur="2.5s"
          repeatCount="indefinite"
          values="rgb(150,50,255);rgb(255,50,150);rgb(0,200,255);rgb(150,50,255)" />
      </stop>
    </linearGradient>
    <linearGradient
      id="fillGrad4"
      x1="1.544%"
      y1="27.541%"
      x2="102.827%"
      y2="83.847%">
      <stop
        style="stop-color:rgb(0,255,198); stop-opacity:1.000"
        offset="0.000%">
        <animate
          attributeName="stop-color"
          dur="3s"
          repeatCount="indefinite"
          values="rgb(0,255,198);rgb(0,223,255);rgb(0,255,198)" />
      </stop>
      <stop
        style="stop-color:rgb(0,223,255); stop-opacity:1.000"
        offset="100.000%">
        <animate
          attributeName="stop-color"
          dur="3s"
          repeatCount="indefinite"
          values="rgb(0,223,255);rgb(0,255,198);rgb(0,223,255)" />
      </stop>
    </linearGradient>
  </defs>
  <path
    fill="url(#fillGrad0)"
    stroke="#000000"
    stroke-width="0.24"
    stroke-opacity="0.000"
    fill-opacity="1.0"
    d="M 5.14,3.98 L 18.45,3.98 A 1.53 1.53 0 0 1 19.98,5.51 L 19.98,18.64 A 1.53 1.53 0 0 1 18.45,20.17 L 5.14,20.17 A 1.53 1.53 0 0 1 3.62,18.64 L 3.62,5.51 A 1.53 1.53 0 0 1 5.14,3.98 z"
    transform="rotate(-336.10 11.80 12.07)"
    fill-rule="nonzero"
    stroke-linecap="square"
    stroke-linejoin="miter" />
  <path
    fill="url(#fillGrad1)"
    stroke="#000000"
    stroke-width="0.24"
    stroke-opacity="0.000"
    fill-opacity="1.0"
    d="M 5.63,3.83 L 18.68,3.83 A 2.07 2.07 0 0 1 20.75,5.90 L 20.75,17.22 A 2.07 2.07 0 0 1 18.68,19.29 L 5.63,19.29 A 2.07 2.07 0 0 1 3.56,17.22 L 3.56,5.90 A 2.07 2.07 0 0 1 5.63,3.83 z"
    transform="rotate(-26.75 12.16 11.56)"
    fill-rule="nonzero"
    stroke-linecap="square"
    stroke-linejoin="miter" />
  <path
    fill="url(#fillGrad2)"
    stroke="#000000"
    stroke-width="0.24"
    stroke-opacity="0.000"
    fill-opacity="1.0"
    d="M 5.43,4.33 L 17.54,4.33 A 1.70 1.70 0 0 1 19.24,6.02 L 19.24,17.84 A 1.70 1.70 0 0 1 17.54,19.53 L 5.43,19.53 A 1.70 1.70 0 0 1 3.73,17.84 L 3.73,6.02 A 1.70 1.70 0 0 1 5.43,4.33 z"
    transform="rotate(-350.48 11.49 11.93)"
    fill-rule="nonzero"
    stroke-linecap="square"
    stroke-linejoin="miter" />
  <path
    fill="#000"
    stroke="#000000"
    stroke-width="0.24"
    stroke-opacity="0.000"
    fill-opacity="1.000"
    d="M 6.16,7.35 L 16.65,7.46 A 1.07 1.07 0 0 1 17.70,8.55 L 17.63,14.96 A 1.07 1.07 0 0 1 16.55,16.01 L 6.06,15.90 A 1.07 1.07 0 0 1 5.01,14.81 L 5.08,8.40 A 1.07 1.07 0 0 1 6.16,7.35 z"
    fill-rule="nonzero"
    stroke-linecap="square"
    stroke-linejoin="miter" />
  <text
    stroke="#000000"
    stroke-width="0.24"
    stroke-opacity="0.000"
    fill-opacity="0"
    transform="rotate(-0.0 10.961351 11.778305) scale(1.1126215 1.0)"
    font-family="default"
    font-size="4.6908407"
    font-weight="bold"
    text-anchor="start">
    <tspan
      x="6.1558237"
      y="13.684304">GSI</tspan>
  </text>
  <text
    fill="#92fff0"
    stroke-width="0"
    fill-opacity="1.0"
    transform="rotate(-0.0 10.961351 11.778305) scale(1.1126215 1.0)"
    font-family="default"
    font-size="4.6908407"
    font-weight="bold"
    text-anchor="start">
    <tspan
      x="7.198202"
      y="13.684304">GSI</tspan>
  </text>
</svg>